<?xml version="1.0" encoding="utf-8"?>
<svg data-v-fde0c5aa="" viewBox="0 0 300 100" class="iconLeftSlogan" xmlns="http://www.w3.org/2000/svg">
  <g data-v-fde0c5aa="" id="3b3ee620-bf0e-4ca2-8fdc-928d2a1adc56" fill="#282335" transform="matrix(2.26705, 0, -0.053521, 2.26705, 95.892448, 22.235159)" style="">
    <path d="M11.77 12.45L11.77 12.73L11.77 12.73Q11.02 12.73 10.51 12.55L10.51 12.55L10.51 12.55Q10.01 12.38 9.72 12.01L9.72 12.01L9.72 12.01Q9.42 11.65 9.30 11.07L9.30 11.07L9.30 11.07Q9.18 10.50 9.18 9.72L9.18 9.72L9.18 4.33L5.68 12.10L5.40 12.10L1.76 4.19L1.76 12.10L1.20 12.10L1.20 2.86L2.53 2.86L5.89 10.14L9.18 2.86L10.44 2.86L10.44 9.72L10.44 9.72Q10.44 10.99 10.77 11.72L10.77 11.72L10.77 11.72Q11.09 12.45 11.77 12.45L11.77 12.45ZM14.45 7.20L14.45 12.10L13.19 12.10L13.19 7.20L13.19 7.20Q13.19 6.57 13.01 6.18L13.01 6.18L13.01 6.18Q12.84 5.80 12.21 5.80L12.21 5.80L11.93 5.80L11.93 5.52L13.19 5.52L13.19 5.52Q13.55 5.52 13.80 5.58L13.80 5.58L13.80 5.58Q14.04 5.64 14.19 5.83L14.19 5.83L14.19 5.83Q14.34 6.02 14.39 6.35L14.39 6.35L14.39 6.35Q14.45 6.68 14.45 7.20L14.45 7.20ZM14.36 4.05L14.36 4.05L14.36 4.05Q14.36 4.34 14.19 4.51L14.19 4.51L14.19 4.51Q14.01 4.68 13.72 4.68L13.72 4.68L13.72 4.68Q13.40 4.68 13.17 4.41L13.17 4.41L13.17 4.41Q12.94 4.14 12.94 3.78L12.94 3.78L12.94 3.78Q12.94 3.49 13.11 3.32L13.11 3.32L13.11 3.32Q13.29 3.15 13.58 3.15L13.58 3.15L13.58 3.15Q13.90 3.15 14.13 3.42L14.13 3.42L14.13 3.42Q14.36 3.68 14.36 4.05ZM16.63 12.10L16.63 7.20L16.63 7.20Q16.63 6.57 16.46 6.18L16.46 6.18L16.46 6.18Q16.28 5.80 15.65 5.80L15.65 5.80L15.37 5.80L15.37 5.52L16.63 5.52L16.63 5.52Q17.16 5.52 17.44 5.66L17.44 5.66L17.44 5.66Q17.71 5.81 17.82 6.08L17.82 6.08L17.89 6.08L17.89 6.08Q18.16 5.81 18.62 5.59L18.62 5.59L18.62 5.59Q19.08 5.38 19.71 5.38L19.71 5.38L19.71 5.38Q20.16 5.38 20.59 5.48L20.59 5.48L20.59 5.48Q21.01 5.59 21.35 5.87L21.35 5.87L21.35 5.87Q21.69 6.16 21.89 6.65L21.89 6.65L21.89 6.65Q22.09 7.14 22.09 7.90L22.09 7.90L22.09 12.10L20.83 12.10L20.83 7.90L20.83 7.90Q20.83 7.38 20.70 7.01L20.70 7.01L20.70 7.01Q20.57 6.65 20.35 6.43L20.35 6.43L20.35 6.43Q20.13 6.20 19.86 6.10L19.86 6.10L19.86 6.10Q19.59 6.01 19.29 6.01L19.29 6.01L19.29 6.01Q18.87 6.01 18.52 6.23L18.52 6.23L18.52 6.23Q18.16 6.45 17.89 6.75L17.89 6.75L17.89 12.10L16.63 12.10ZM28.10 10.84L28.10 6.36L28.10 6.36Q27.78 6.20 27.43 6.07L27.43 6.07L27.43 6.07Q27.09 5.94 26.77 5.94L26.77 5.94L26.77 5.94Q26.29 5.94 25.96 6.16L25.96 6.16L25.96 6.16Q25.63 6.38 25.42 6.77L25.42 6.77L25.42 6.77Q25.21 7.15 25.12 7.68L25.12 7.68L25.12 7.68Q25.02 8.20 25.02 8.81L25.02 8.81L25.02 8.81Q25.02 9.41 25.11 9.93L25.11 9.93L25.11 9.93Q25.20 10.46 25.40 10.84L25.40 10.84L25.40 10.84Q25.61 11.23 25.91 11.45L25.91 11.45L25.91 11.45Q26.21 11.68 26.63 11.68L26.63 11.68L26.63 11.68Q26.94 11.68 27.17 11.61L27.17 11.61L27.17 11.61Q27.40 11.54 27.57 11.42L27.57 11.42L27.57 11.42Q27.75 11.30 27.87 11.14L27.87 11.14L27.87 11.14Q27.99 10.99 28.10 10.84L28.10 10.84ZM29.36 4.54L29.36 12.10L28.66 12.10L28.17 11.47L28.10 11.47L28.10 11.47Q27.99 11.59 27.84 11.73L27.84 11.73L27.84 11.73Q27.69 11.87 27.47 11.98L27.47 11.98L27.47 11.98Q27.24 12.10 26.94 12.17L26.94 12.17L26.94 12.17Q26.63 12.24 26.21 12.24L26.21 12.24L26.21 12.24Q25.58 12.24 25.10 11.96L25.10 11.96L25.10 11.96Q24.63 11.69 24.31 11.23L24.31 11.23L24.31 11.23Q24.00 10.77 23.84 10.14L23.84 10.14L23.84 10.14Q23.69 9.52 23.69 8.81L23.69 8.81L23.69 8.81Q23.69 8.09 23.85 7.47L23.85 7.47L23.85 7.47Q24.01 6.85 24.34 6.38L24.34 6.38L24.34 6.38Q24.67 5.92 25.17 5.65L25.17 5.65L25.17 5.65Q25.66 5.38 26.35 5.38L26.35 5.38L26.35 5.38Q26.94 5.38 27.36 5.51L27.36 5.51L27.36 5.51Q27.78 5.64 28.10 5.80L28.10 5.80L28.10 4.54L28.10 4.54Q28.10 3.91 27.92 3.52L27.92 3.52L27.92 3.52Q27.75 3.14 27.12 3.14L27.12 3.14L26.84 3.14L26.84 2.86L28.10 2.86L28.10 2.86Q28.46 2.86 28.71 2.92L28.71 2.92L28.71 2.92Q28.95 2.98 29.10 3.17L29.10 3.17L29.10 3.17Q29.25 3.36 29.30 3.69L29.30 3.69L29.30 3.69Q29.36 4.02 29.36 4.54L29.36 4.54ZM30.52 2.86L36.11 2.86L36.11 2.86Q36.47 2.86 36.70 2.95L36.70 2.95L36.70 2.95Q36.93 3.05 37.06 3.21L37.06 3.21L37.06 3.21Q37.20 3.36 37.25 3.56L37.25 3.56L37.25 3.56Q37.30 3.77 37.30 3.98L37.30 3.98L37.30 5.03L37.02 5.03L37.02 5.03Q37.02 4.19 36.56 3.80L36.56 3.80L36.56 3.80Q36.11 3.42 35.27 3.42L35.27 3.42L33.04 3.42L33.04 7.13L36.20 7.13L36.20 7.69L33.04 7.69L33.04 12.10L31.78 12.10L31.78 4.54L31.78 4.54Q31.78 3.91 31.61 3.52L31.61 3.52L31.61 3.52Q31.43 3.14 30.80 3.14L30.80 3.14L30.52 3.14L30.52 2.86ZM41.61 10.77L41.61 8.88L41.19 8.88L41.19 8.88Q40.14 8.88 39.54 9.26L39.54 9.26L39.54 9.26Q38.95 9.65 38.95 10.28L38.95 10.28L38.95 10.28Q38.95 10.61 39.06 10.86L39.06 10.86L39.06 10.86Q39.17 11.12 39.35 11.28L39.35 11.28L39.35 11.28Q39.54 11.45 39.77 11.53L39.77 11.53L39.77 11.53Q40.01 11.61 40.28 11.61L40.28 11.61L40.28 11.61Q40.80 11.61 41.10 11.35L41.10 11.35L41.10 11.35Q41.40 11.09 41.61 10.77L41.61 10.77ZM42.87 12.10L42.17 12.10L41.68 11.47L41.61 11.47L41.61 11.47Q41.40 11.73 40.92 11.98L40.92 11.98L40.92 11.98Q40.45 12.24 39.65 12.24L39.65 12.24L39.65 12.24Q39.35 12.24 39.00 12.14L39.00 12.14L39.00 12.14Q38.65 12.05 38.35 11.83L38.35 11.83L38.35 11.83Q38.04 11.61 37.83 11.23L37.83 11.23L37.83 11.23Q37.62 10.85 37.62 10.28L37.62 10.28L37.62 10.28Q37.62 9.70 37.91 9.32L37.91 9.32L37.91 9.32Q38.21 8.95 38.70 8.72L38.70 8.72L38.70 8.72Q39.19 8.50 39.83 8.41L39.83 8.41L39.83 8.41Q40.47 8.32 41.19 8.32L41.19 8.32L41.61 8.32L41.61 8.32Q41.61 7.59 41.50 7.12L41.50 7.12L41.50 7.12Q41.38 6.65 41.19 6.39L41.19 6.39L41.19 6.39Q40.99 6.13 40.72 6.03L40.72 6.03L40.72 6.03Q40.45 5.94 40.14 5.94L40.14 5.94L40.14 5.94Q39.55 5.94 39.15 6.19L39.15 6.19L39.15 6.19Q38.75 6.44 38.60 7.13L38.60 7.13L37.97 7.13L37.97 7.13Q37.97 6.76 38.01 6.45L38.01 6.45L38.01 6.45Q38.05 6.13 38.32 5.87L38.32 5.87L38.32 5.87Q38.44 5.74 38.68 5.64L38.68 5.64L38.68 5.64Q38.91 5.54 39.19 5.49L39.19 5.49L39.19 5.49Q39.47 5.43 39.78 5.40L39.78 5.40L39.78 5.40Q40.10 5.38 40.42 5.38L40.42 5.38L40.42 5.38Q40.89 5.38 41.34 5.48L41.34 5.48L41.34 5.48Q41.78 5.59 42.12 5.90L42.12 5.90L42.12 5.90Q42.46 6.22 42.67 6.80L42.67 6.80L42.67 6.80Q42.87 7.38 42.87 8.32L42.87 8.32L42.87 12.10ZM49.46 10.42L49.46 10.42L49.46 10.42Q49.46 10.86 49.27 11.20L49.27 11.20L49.27 11.20Q49.08 11.54 48.76 11.77L48.76 11.77L48.76 11.77Q48.44 12.00 47.99 12.12L47.99 12.12L47.99 12.12Q47.53 12.24 47.01 12.24L47.01 12.24L47.01 12.24Q46.17 12.24 45.64 12.09L45.64 12.09L45.64 12.09Q45.11 11.94 44.84 11.68L44.84 11.68L44.84 11.68Q44.58 11.41 44.53 11.07L44.53 11.07L44.53 11.07Q44.49 10.74 44.49 10.21L44.49 10.21L44.77 10.21L44.77 10.21Q44.88 10.89 45.36 11.28L45.36 11.28L45.36 11.28Q45.84 11.68 46.73 11.68L46.73 11.68L46.73 11.68Q47.53 11.68 47.90 11.40L47.90 11.40L47.90 11.40Q48.27 11.12 48.27 10.70L48.27 10.70L48.27 10.70Q48.27 10.28 47.96 9.99L47.96 9.99L47.96 9.99Q47.64 9.70 47.01 9.44L47.01 9.44L46.17 9.09L46.17 9.09Q45.37 8.76 44.93 8.32L44.93 8.32L44.93 8.32Q44.49 7.88 44.49 7.20L44.49 7.20L44.49 7.20Q44.49 6.75 44.67 6.41L44.67 6.41L44.67 6.41Q44.84 6.08 45.15 5.84L45.15 5.84L45.15 5.84Q45.46 5.61 45.88 5.50L45.88 5.50L45.88 5.50Q46.30 5.38 46.80 5.38L46.80 5.38L46.80 5.38Q47.60 5.38 48.12 5.52L48.12 5.52L48.12 5.52Q48.64 5.67 48.90 5.94L48.90 5.94L48.90 5.94Q49.17 6.20 49.21 6.54L49.21 6.54L49.21 6.54Q49.25 6.87 49.25 7.41L49.25 7.41L48.97 7.41L48.97 7.41Q48.86 6.72 48.39 6.33L48.39 6.33L48.39 6.33Q47.92 5.94 47.08 5.94L47.08 5.94L47.08 5.94Q46.40 5.94 46.04 6.22L46.04 6.22L46.04 6.22Q45.68 6.50 45.68 6.92L45.68 6.92L45.68 6.92Q45.68 7.28 45.98 7.58L45.98 7.58L45.98 7.58Q46.27 7.88 46.80 8.11L46.80 8.11L47.64 8.46L47.64 8.46Q48.54 8.82 49.00 9.25L49.00 9.25L49.00 9.25Q49.46 9.69 49.46 10.42ZM52.32 4.54L52.32 6.08L52.32 6.08Q52.58 5.81 53.05 5.59L53.05 5.59L53.05 5.59Q53.51 5.38 54.14 5.38L54.14 5.38L54.14 5.38Q54.59 5.38 55.01 5.48L55.01 5.48L55.01 5.48Q55.44 5.59 55.78 5.87L55.78 5.87L55.78 5.87Q56.11 6.16 56.32 6.65L56.32 6.65L56.32 6.65Q56.52 7.14 56.52 7.90L56.52 7.90L56.52 12.10L55.26 12.10L55.26 7.90L55.26 7.90Q55.26 7.38 55.13 7.01L55.13 7.01L55.13 7.01Q54.99 6.65 54.78 6.43L54.78 6.43L54.78 6.43Q54.56 6.20 54.29 6.10L54.29 6.10L54.29 6.10Q54.01 6.01 53.72 6.01L53.72 6.01L53.72 6.01Q53.30 6.01 52.94 6.23L52.94 6.23L52.94 6.23Q52.58 6.45 52.32 6.75L52.32 6.75L52.32 12.10L51.06 12.10L51.06 4.54L51.06 4.54Q51.06 3.91 50.88 3.52L50.88 3.52L50.88 3.52Q50.71 3.14 50.08 3.14L50.08 3.14L49.80 3.14L49.80 2.86L51.06 2.86L51.06 2.86Q51.42 2.86 51.67 2.92L51.67 2.92L51.67 2.92Q51.91 2.98 52.06 3.17L52.06 3.17L52.06 3.17Q52.21 3.36 52.26 3.69L52.26 3.69L52.26 3.69Q52.32 4.02 52.32 4.54L52.32 4.54ZM59.93 7.20L59.93 12.10L58.67 12.10L58.67 7.20L58.67 7.20Q58.67 6.57 58.50 6.18L58.50 6.18L58.50 6.18Q58.32 5.80 57.69 5.80L57.69 5.80L57.41 5.80L57.41 5.52L58.67 5.52L58.67 5.52Q59.04 5.52 59.28 5.58L59.28 5.58L59.28 5.58Q59.53 5.64 59.68 5.83L59.68 5.83L59.68 5.83Q59.82 6.02 59.88 6.35L59.88 6.35L59.88 6.35Q59.93 6.68 59.93 7.20L59.93 7.20ZM59.85 4.05L59.85 4.05L59.85 4.05Q59.85 4.34 59.68 4.51L59.68 4.51L59.68 4.51Q59.50 4.68 59.21 4.68L59.21 4.68L59.21 4.68Q58.88 4.68 58.65 4.41L58.65 4.41L58.65 4.41Q58.42 4.14 58.42 3.78L58.42 3.78L58.42 3.78Q58.42 3.49 58.60 3.32L58.60 3.32L58.60 3.32Q58.77 3.15 59.07 3.15L59.07 3.15L59.07 3.15Q59.39 3.15 59.62 3.42L59.62 3.42L59.62 3.42Q59.85 3.68 59.85 4.05ZM66.36 8.81L66.36 8.81L66.36 8.81Q66.36 8.20 66.23 7.68L66.23 7.68L66.23 7.68Q66.11 7.15 65.88 6.77L65.88 6.77L65.88 6.77Q65.65 6.38 65.32 6.16L65.32 6.16L65.32 6.16Q65.00 5.94 64.61 5.94L64.61 5.94L64.61 5.94Q64.22 5.94 63.90 6.16L63.90 6.16L63.90 6.16Q63.57 6.38 63.34 6.77L63.34 6.77L63.34 6.77Q63.11 7.15 62.99 7.68L62.99 7.68L62.99 7.68Q62.86 8.20 62.86 8.81L62.86 8.81L62.86 8.81Q62.86 9.41 62.99 9.93L62.99 9.93L62.99 9.93Q63.11 10.46 63.34 10.84L63.34 10.84L63.34 10.84Q63.57 11.23 63.90 11.45L63.90 11.45L63.90 11.45Q64.22 11.68 64.61 11.68L64.61 11.68L64.61 11.68Q65.00 11.68 65.32 11.45L65.32 11.45L65.32 11.45Q65.65 11.23 65.88 10.84L65.88 10.84L65.88 10.84Q66.11 10.46 66.23 9.93L66.23 9.93L66.23 9.93Q66.36 9.41 66.36 8.81ZM61.53 8.81L61.53 8.81L61.53 8.81Q61.53 8.09 61.73 7.47L61.73 7.47L61.73 7.47Q61.94 6.85 62.34 6.38L62.34 6.38L62.34 6.38Q62.73 5.92 63.30 5.65L63.30 5.65L63.30 5.65Q63.87 5.38 64.61 5.38L64.61 5.38L64.61 5.38Q65.34 5.38 65.91 5.65L65.91 5.65L65.91 5.65Q66.49 5.92 66.89 6.38L66.89 6.38L66.89 6.38Q67.28 6.85 67.49 7.47L67.49 7.47L67.49 7.47Q67.69 8.09 67.69 8.81L67.69 8.81L67.69 8.81Q67.69 9.52 67.49 10.14L67.49 10.14L67.49 10.14Q67.28 10.77 66.89 11.23L66.89 11.23L66.89 11.23Q66.49 11.69 65.91 11.96L65.91 11.96L65.91 11.96Q65.34 12.24 64.61 12.24L64.61 12.24L64.61 12.24Q63.87 12.24 63.30 11.96L63.30 11.96L63.30 11.96Q62.73 11.69 62.34 11.23L62.34 11.23L62.34 11.23Q61.94 10.77 61.73 10.14L61.73 10.14L61.73 10.14Q61.53 9.52 61.53 8.81ZM69.54 12.10L69.54 7.20L69.54 7.20Q69.54 6.57 69.36 6.18L69.36 6.18L69.36 6.18Q69.19 5.80 68.56 5.80L68.56 5.80L68.28 5.80L68.28 5.52L69.54 5.52L69.54 5.52Q70.07 5.52 70.34 5.66L70.34 5.66L70.34 5.66Q70.62 5.81 70.73 6.08L70.73 6.08L70.80 6.08L70.80 6.08Q71.06 5.81 71.53 5.59L71.53 5.59L71.53 5.59Q71.99 5.38 72.62 5.38L72.62 5.38L72.62 5.38Q73.07 5.38 73.49 5.48L73.49 5.48L73.49 5.48Q73.92 5.59 74.26 5.87L74.26 5.87L74.26 5.87Q74.59 6.16 74.80 6.65L74.80 6.65L74.80 6.65Q75.00 7.14 75.00 7.90L75.00 7.90L75.00 12.10L73.74 12.10L73.74 7.90L73.74 7.90Q73.74 7.38 73.61 7.01L73.61 7.01L73.61 7.01Q73.47 6.65 73.26 6.43L73.26 6.43L73.26 6.43Q73.04 6.20 72.77 6.10L72.77 6.10L72.77 6.10Q72.49 6.01 72.20 6.01L72.20 6.01L72.20 6.01Q71.78 6.01 71.42 6.23L71.42 6.23L71.42 6.23Q71.06 6.45 70.80 6.75L70.80 6.75L70.80 12.10L69.54 12.10Z"/>
  </g>
  <defs data-v-fde0c5aa="">
    <linearGradient data-v-fde0c5aa="" gradientTransform="rotate(25)" id="141ee426-20ea-48a8-b8a8-60334e6b1374" x1="0%" y1="0%" x2="100%" y2="0%">
      <stop data-v-fde0c5aa="" offset="0" stop-color="#422F75" stop-opacity="1"/>
      <stop data-v-fde0c5aa="" offset="1" stop-color="#C0B3EC" stop-opacity="1"/>
    </linearGradient>
  </defs>
  <g data-v-fde0c5aa="" id="c13369db-418a-44b7-a879-ac538794000f" stroke="none" fill="url(#141ee426-20ea-48a8-b8a8-60334e6b1374)" transform="matrix(0.524426, 0, 0, 0.524426, 25.922039, 19.540678)">
    <g clip-rule="evenodd">
      <path d="M12.983 10.59l17.018 88.223-5.872-59.049 29.021-1.892-.054-9.883L64.549 1 53.622 18.977z"/>
      <path d="M59.389 54.548l5.16-53.541-8.74 39.716-19.612 1.045 1.57 20.462-7.766 36.583 12.057-39.899z"/>
      <path d="M62.8 67.182l.549-10.453-15.979 3.755-.032 11.797-17.337 26.532 21.68-27.616zM65.711 62.394l14.841-4.731 1.509-12.532-15.899 2.095zM72.07 44.502l10.988-1.417 1.581-10.278-8.079-.373L64.549 1l8.43 30.967z"/>
      <path d="M87.413 31.294l1.256-9.506-9.544-2.694L64.549 1l14.483 22.437-.422 7z"/>
    </g>
  </g>
  <g data-v-fde0c5aa="" id="b9230f6a-16b4-4bd3-a3af-985a4c1df59b" fill="#282335" transform="matrix(0.505616, 0, -0.011937, 0.505616, 97.502602, 59.628414)" style="">
    <path d="M0.45 12.39C0.45 12.63 0.48 12.68 0.67 12.68C0.91 12.68 1.41 12.64 1.83 12.64C2.25 12.64 2.74 12.68 3.07 12.68C3.23 12.68 3.26 12.61 3.26 12.40C3.26 12.24 3.23 12.18 3.07 12.18L2.10 12.18C2.04 12.18 2.03 11.54 2.03 10.79C2.03 8.96 2.07 6.13 2.14 4.28C2.17 3.88 2.20 3.91 2.34 4.27L5.60 12.32C5.70 12.54 5.77 12.74 5.88 12.74C5.98 12.74 6.05 12.63 6.13 12.45C6.47 11.79 6.65 11.75 6.92 11.09L9.51 4.47C9.63 4.16 9.67 4.02 9.69 4.47C9.72 5.66 9.76 8.47 9.76 9.74C9.76 10.99 9.72 12.18 9.66 12.18L9.03 12.18C8.81 12.18 8.74 12.19 8.74 12.39C8.74 12.63 8.76 12.68 8.96 12.68C9.16 12.68 9.86 12.64 10.46 12.64C10.88 12.64 11.63 12.68 11.96 12.68C12.12 12.68 12.15 12.61 12.15 12.40C12.15 12.22 12.10 12.18 11.93 12.18L11.20 12.18C11.09 12.18 10.99 8.44 10.99 6.03L10.99 4.77C10.99 4.17 11.02 3.77 11.06 3.70L11.72 3.70C11.94 3.70 11.98 3.68 11.98 3.49C11.98 3.25 11.97 3.19 11.77 3.19C11.45 3.19 10.77 3.23 10.35 3.23L9.67 3.23C9.45 3.23 9.42 3.29 9.31 3.58L6.57 10.72C6.48 10.95 6.45 11.02 6.34 10.74L3.40 3.40C3.33 3.22 3.28 3.19 3.14 3.19C3.05 3.19 2.56 3.23 2.25 3.23C1.75 3.23 0.90 3.19 0.70 3.19C0.56 3.19 0.56 3.26 0.56 3.47C0.56 3.64 0.56 3.70 0.70 3.70L1.40 3.70C1.67 3.70 1.67 3.72 1.67 3.84C1.67 4.82 1.46 9.94 1.41 10.79C1.37 11.55 1.37 12.18 1.32 12.18L0.74 12.18C0.52 12.18 0.45 12.19 0.45 12.39ZM19.91 12.39C19.91 12.63 19.91 12.68 20.10 12.68C20.27 12.68 20.59 12.64 21.17 12.64C21.78 12.64 22.33 12.68 22.48 12.68C22.65 12.68 22.65 12.61 22.65 12.40C22.65 12.24 22.65 12.18 22.48 12.18L21.41 12.18C21.41 12.18 21.39 12.18 21.39 12.17C21.41 11.87 22.18 9.90 22.53 9.02C22.60 8.83 22.61 8.79 22.82 8.79L25.65 8.79C25.79 8.79 25.79 8.81 25.86 9.03C26.12 9.77 26.84 11.89 26.84 12.17C26.84 12.18 26.82 12.18 26.82 12.18L26.05 12.18C25.83 12.18 25.82 12.19 25.82 12.39C25.82 12.63 25.83 12.68 26.00 12.68C26.32 12.68 27.19 12.64 27.61 12.64C28.03 12.64 28.70 12.68 28.91 12.68C29.05 12.68 29.06 12.61 29.06 12.40C29.06 12.24 29.05 12.18 28.91 12.18L28.42 12.18C28.32 12.18 27.30 9.34 26.74 7.78L25.06 3.07C25.05 3.00 24.98 2.94 24.89 2.94C24.77 2.94 24.67 3.16 24.58 3.35C24.43 3.71 24.19 3.84 24.08 4.13L22.60 7.57C22.41 8.01 20.71 12.18 20.58 12.18L20.16 12.18C19.94 12.18 19.91 12.19 19.91 12.39ZM22.81 8.33C22.81 8.30 22.83 8.23 22.88 8.13L24.25 4.77C24.29 4.66 24.32 4.61 24.35 4.61C24.36 4.61 24.37 4.63 24.42 4.77L25.58 8.18C25.61 8.25 25.62 8.29 25.62 8.32C25.62 8.36 25.59 8.37 25.49 8.37L22.99 8.37C22.81 8.37 22.81 8.34 22.81 8.33ZM36.82 12.39C36.82 12.63 36.83 12.68 37.03 12.68C37.35 12.68 38.25 12.64 38.67 12.64C39.09 12.64 40.04 12.68 40.36 12.68C40.53 12.68 40.54 12.61 40.54 12.40C40.54 12.24 40.52 12.18 40.35 12.18L39.34 12.18C39.24 12.18 39.21 10.12 39.21 8.46C39.21 8.30 39.21 8.30 39.38 8.30L39.65 8.30C39.86 8.30 39.86 8.32 39.93 8.40L42.97 12.00C43.06 12.11 43.13 12.18 42.92 12.18L42.46 12.18C42.28 12.18 42.21 12.19 42.21 12.39C42.21 12.63 42.21 12.68 42.41 12.68C42.73 12.68 43.43 12.64 43.85 12.64C44.27 12.64 44.95 12.68 45.28 12.68C45.44 12.68 45.44 12.61 45.44 12.40C45.44 12.24 45.44 12.18 45.28 12.18L45.05 12.18C44.87 12.18 44.77 12.10 44.65 11.96L40.88 7.62C40.74 7.45 40.71 7.50 40.84 7.36C41.29 6.83 43.82 3.77 43.89 3.77L44.56 3.77C44.79 3.77 44.81 3.75 44.81 3.56C44.81 3.32 44.81 3.26 44.62 3.26C44.42 3.26 43.97 3.30 43.46 3.30C42.92 3.30 42.45 3.26 42.22 3.26C42.04 3.26 41.94 3.28 41.94 3.51C41.94 3.75 42.06 3.77 42.22 3.77L42.78 3.77C42.95 3.77 42.95 3.84 42.84 3.99C42.31 4.66 39.96 7.92 39.66 7.92L39.35 7.92C39.21 7.92 39.21 7.88 39.21 7.69L39.21 5.94C39.21 5.21 39.28 3.77 39.38 3.77L40.15 3.77C40.38 3.77 40.42 3.75 40.42 3.56C40.42 3.32 40.40 3.26 40.21 3.26C39.89 3.26 39.12 3.30 38.70 3.30C38.11 3.30 37.45 3.26 37.23 3.26C37.04 3.26 36.95 3.28 36.95 3.51C36.95 3.75 37.06 3.77 37.23 3.77L37.87 3.77C37.93 3.77 37.95 4.86 37.95 5.78L37.95 9.84C37.95 11.00 37.94 12.18 37.86 12.18L37.11 12.18C36.89 12.18 36.82 12.19 36.82 12.39ZM52.92 12.39C52.92 12.63 52.95 12.68 53.14 12.68C53.47 12.68 54.43 12.64 54.85 12.64C55.27 12.64 59.78 12.68 60.10 12.68C60.23 12.68 60.38 12.66 60.38 12.49C60.38 12.07 60.42 11.23 60.42 10.53C60.42 10.39 60.27 10.39 60.14 10.39C60.03 10.39 59.91 10.39 59.91 10.51C59.89 11.06 59.89 11.41 59.86 11.76C59.84 12.01 59.84 12.04 59.74 12.04C59.58 12.04 56.95 12.08 55.45 12.08C55.38 12.08 55.34 10.11 55.30 8.26C55.30 8.06 55.34 8.09 55.48 8.09L57.76 8.09C58.46 8.09 58.49 8.20 58.49 8.30L58.49 9.00C58.49 9.14 58.67 9.14 58.79 9.14C58.88 9.14 59.01 9.13 59.01 9.02C59.01 8.83 58.98 8.33 58.98 7.83C58.98 7.32 59.01 6.83 59.01 6.71C59.01 6.59 58.87 6.58 58.77 6.58C58.66 6.58 58.49 6.59 58.49 6.72L58.49 7.45C58.49 7.62 58.04 7.63 57.76 7.63L55.43 7.63C55.31 7.63 55.30 7.63 55.30 7.45C55.29 6.75 55.27 6.06 55.27 5.46C55.27 5.12 55.27 3.71 55.36 3.71C56.59 3.71 59.09 3.75 59.09 3.81C59.09 3.99 59.05 4.83 59.05 4.89C59.05 5.04 59.12 5.10 59.30 5.10C59.50 5.10 59.57 5.08 59.57 4.94C59.57 3.85 59.63 3.36 59.63 3.09C59.63 2.91 59.54 2.90 59.35 2.90C59.15 2.90 59.15 2.95 59.12 3.11C59.11 3.25 59.18 3.25 58.27 3.25C57.65 3.25 55.51 3.29 54.74 3.29C54.25 3.29 53.31 3.25 53.21 3.25C53.09 3.25 53.03 3.30 53.03 3.49C53.03 3.72 53.10 3.74 53.27 3.74L53.93 3.74C53.98 3.74 54.05 4.79 54.05 5.71C54.05 5.80 54.11 8.27 54.11 9.83L54.11 11.17C54.11 11.84 54.08 12.18 54.05 12.18L53.20 12.18C52.98 12.18 52.92 12.21 52.92 12.39ZM77.77 3.44C77.77 3.68 77.85 3.70 78.02 3.70L78.43 3.70C78.55 3.70 80.81 7.74 81.21 8.50C81.27 8.60 81.31 8.65 81.31 8.81C81.31 10.50 81.30 12.18 81.17 12.18L80.46 12.18C80.23 12.18 80.19 12.19 80.19 12.39C80.19 12.63 80.21 12.68 80.40 12.68C80.60 12.68 81.41 12.64 82.00 12.64C82.82 12.64 83.36 12.68 83.68 12.68C83.85 12.68 83.87 12.61 83.87 12.40C83.87 12.24 83.85 12.18 83.68 12.18L82.71 12.18C82.61 12.18 82.59 9.72 82.59 8.22C82.59 8.18 82.59 8.15 82.63 8.09C83.17 7.22 85.12 3.70 85.19 3.70L85.67 3.70C85.83 3.70 85.93 3.68 85.93 3.44C85.93 3.22 85.85 3.19 85.67 3.19C85.44 3.19 85.20 3.23 84.60 3.23C84.01 3.23 83.68 3.19 83.51 3.19C83.31 3.19 83.27 3.25 83.27 3.49C83.27 3.68 83.34 3.70 83.57 3.70L84.29 3.70C84.31 3.70 84.32 3.71 84.32 3.74C84.32 4.05 82.75 6.99 82.38 7.71C82.26 7.92 82.26 7.88 82.15 7.67C81.75 6.89 80.46 4.56 80.16 3.85C80.11 3.71 80.09 3.70 80.28 3.70L81.10 3.70C81.33 3.70 81.35 3.68 81.35 3.49C81.35 3.25 81.31 3.19 81.16 3.19C80.92 3.19 80.30 3.23 79.51 3.23C78.69 3.23 78.20 3.19 78.02 3.19C77.84 3.19 77.77 3.21 77.77 3.44ZM93.06 8.15C93.06 11.17 95.40 12.80 97.65 12.80C100.44 12.80 102.41 10.89 102.41 8.06C102.41 5.33 100.66 3.11 97.86 3.11C95.26 3.11 93.06 5.10 93.06 8.15ZM94.46 7.77C94.46 5.64 95.75 3.58 97.72 3.58C99.96 3.58 101.04 5.81 101.04 7.94C101.04 10.08 99.93 12.32 97.66 12.32C95.68 12.32 94.46 10.28 94.46 7.77ZM110.52 3.51C110.52 3.75 110.60 3.77 110.77 3.77L111.30 3.77C111.36 3.77 111.36 4.12 111.36 4.55C111.36 5.66 111.34 8.96 111.34 9.42C111.34 11.13 111.59 12.80 114.45 12.80C115.53 12.80 116.69 12.38 117.35 12.00C117.60 11.86 117.89 11.72 117.98 11.72C118.24 11.72 118.51 12.74 118.85 12.74C119.17 12.74 119.18 12.35 119.18 12.25C119.18 11.96 119.24 10.08 119.28 8.16C119.34 6.12 119.32 3.77 119.43 3.77L119.76 3.77C119.98 3.77 120.05 3.75 120.05 3.56C120.05 3.32 120.01 3.26 119.81 3.26C119.67 3.26 119.14 3.30 118.72 3.30C118.30 3.30 117.50 3.26 117.28 3.26C117.10 3.26 117.00 3.28 117.00 3.51C117.00 3.75 117.11 3.77 117.28 3.77L117.98 3.77C118.05 3.77 118.06 4.30 118.06 4.87L118.06 9.14C118.06 11.19 118.06 11.12 117.73 11.34C117.33 11.61 116.52 12.08 115.35 12.08C113.37 12.08 112.57 11.17 112.57 9.41C112.57 8.82 112.64 3.77 112.76 3.77L113.67 3.77C113.89 3.77 113.93 3.75 113.93 3.56C113.93 3.32 113.92 3.26 113.72 3.26C113.40 3.26 112.52 3.30 112.10 3.30C111.68 3.30 110.99 3.26 110.77 3.26C110.59 3.26 110.52 3.28 110.52 3.51ZM128.09 3.51C128.09 3.72 128.16 3.79 128.35 3.79L129.16 3.77C129.26 3.77 129.30 6.61 129.30 8.55L129.30 10.42C129.30 11.30 129.29 12.18 129.25 12.18L128.65 12.18C128.42 12.18 128.35 12.19 128.35 12.39C128.35 12.63 128.39 12.68 128.59 12.68C128.72 12.68 129.54 12.64 129.96 12.64C130.38 12.64 131.15 12.68 131.47 12.68C131.64 12.68 131.67 12.61 131.67 12.40C131.67 12.24 131.64 12.18 131.47 12.18L130.66 12.18C130.59 12.18 130.51 9.18 130.51 8.37C130.51 8.30 130.51 8.26 130.62 8.26C131.01 8.26 131.61 8.27 131.91 8.27C134.15 8.32 134.29 10.00 134.29 11.68L134.29 12.49C134.29 12.61 134.34 12.64 134.44 12.64C134.44 12.64 135.88 12.68 136.36 12.68C136.53 12.68 136.58 12.64 136.58 12.53C136.58 12.24 136.53 12.18 136.37 12.18L135.73 12.18C135.63 12.18 135.60 12.14 135.58 11.31C135.49 8.99 134.12 8.34 133.21 8.05C133.07 8.01 133.10 8.01 133.21 7.95C133.80 7.69 135.11 6.94 135.11 5.63C135.11 3.63 133.42 3.21 132.02 3.21C131.70 3.21 130.41 3.29 129.99 3.29C129.57 3.29 128.59 3.26 128.37 3.26C128.18 3.26 128.09 3.28 128.09 3.51ZM130.51 7.80L130.51 4.40C130.51 4.05 130.54 3.68 130.58 3.68C130.79 3.65 131.07 3.65 131.29 3.65C132.59 3.65 133.84 4.47 133.84 5.82C133.84 6.99 133.29 7.57 132.64 7.88C132.59 7.90 132.55 7.90 132.48 7.90C132.01 7.88 131.29 7.88 130.69 7.87C130.52 7.87 130.51 7.85 130.51 7.80ZM154.07 5.77C154.07 9.07 159.05 8.20 159.05 10.65C159.05 11.59 158.21 12.31 157.23 12.31C156.41 12.31 154.81 11.83 154.78 11.47L154.70 10.15C154.69 9.97 154.62 9.91 154.43 9.91L154.36 9.91C154.15 9.91 154.15 10.00 154.15 10.12C154.15 10.32 154.27 11.66 154.29 12.17C154.31 12.38 155.57 12.85 157.11 12.85C158.68 12.85 160.29 11.87 160.29 10.11C160.29 6.79 155.32 7.87 155.32 5.32C155.32 4.31 156.10 3.56 157.14 3.56C158.16 3.56 159.25 4.58 159.25 4.89C159.25 5.01 159.21 5.73 159.21 5.78C159.21 5.92 159.25 5.99 159.52 5.99C159.75 5.99 159.77 5.94 159.77 5.75C159.77 5.04 159.85 3.68 159.85 3.53C159.85 3.30 159.81 3.29 159.54 3.29C159.32 3.29 159.31 3.32 159.29 3.53C159.29 3.61 159.28 3.78 159.24 3.78C159.18 3.78 159.10 3.74 159.03 3.68C158.23 3.14 157.61 3.08 157.11 3.08C155.58 3.08 154.07 4.17 154.07 5.77ZM167.85 5.01C167.85 5.17 168.03 5.17 168.15 5.17C168.31 5.17 168.35 5.15 168.36 4.97L168.48 3.89C168.49 3.81 169.04 3.75 169.79 3.75L171.78 3.75C171.84 3.75 171.86 4.35 171.86 4.97C171.86 6.43 171.81 12.18 171.68 12.18L170.81 12.18C170.59 12.18 170.55 12.19 170.55 12.39C170.55 12.63 170.56 12.68 170.76 12.68C171.08 12.68 172.06 12.64 172.48 12.64C172.90 12.64 173.84 12.68 174.16 12.68C174.33 12.68 174.36 12.61 174.36 12.40C174.36 12.24 174.33 12.18 174.16 12.18L173.17 12.18C173.14 12.18 173.14 11.76 173.14 11.31C173.14 9.56 173.22 5.96 173.22 5.92C173.24 5.18 173.24 3.75 173.33 3.75L174.94 3.75C175.66 3.75 176.48 3.78 176.48 3.85C176.48 3.99 176.44 4.90 176.44 4.97C176.44 5.12 176.51 5.17 176.69 5.17C176.89 5.17 176.96 5.17 176.96 5.03C176.96 3.93 177.02 3.40 177.02 3.14C177.02 2.94 176.93 2.94 176.74 2.94C176.58 2.94 176.53 2.98 176.51 3.16C176.51 3.23 175.87 3.28 175.03 3.28L170.03 3.28C169.37 3.28 168.56 3.28 168.56 3.21L168.56 3.07C168.56 2.94 168.43 2.94 168.34 2.94C168.11 2.94 168.08 3.00 168.07 3.19C168.01 3.89 167.85 4.97 167.85 5.01ZM184.35 3.44C184.35 3.68 184.44 3.70 184.60 3.70L185.01 3.70C185.14 3.70 187.39 7.74 187.80 8.50C187.85 8.60 187.89 8.65 187.89 8.81C187.89 10.50 187.88 12.18 187.75 12.18L187.04 12.18C186.82 12.18 186.77 12.19 186.77 12.39C186.77 12.63 186.79 12.68 186.98 12.68C187.18 12.68 187.99 12.64 188.58 12.64C189.41 12.64 189.94 12.68 190.26 12.68C190.43 12.68 190.46 12.61 190.46 12.40C190.46 12.24 190.43 12.18 190.26 12.18L189.29 12.18C189.20 12.18 189.17 9.72 189.17 8.22C189.17 8.18 189.17 8.15 189.21 8.09C189.76 7.22 191.70 3.70 191.77 3.70L192.25 3.70C192.42 3.70 192.51 3.68 192.51 3.44C192.51 3.22 192.43 3.19 192.25 3.19C192.02 3.19 191.79 3.23 191.18 3.23C190.60 3.23 190.26 3.19 190.09 3.19C189.90 3.19 189.85 3.25 189.85 3.49C189.85 3.68 189.92 3.70 190.15 3.70L190.88 3.70C190.89 3.70 190.90 3.71 190.90 3.74C190.90 4.05 189.34 6.99 188.96 7.71C188.85 7.92 188.85 7.88 188.73 7.67C188.33 6.89 187.04 4.56 186.75 3.85C186.69 3.71 186.68 3.70 186.86 3.70L187.68 3.70C187.91 3.70 187.94 3.68 187.94 3.49C187.94 3.25 187.89 3.19 187.74 3.19C187.50 3.19 186.89 3.23 186.09 3.23C185.28 3.23 184.79 3.19 184.60 3.19C184.42 3.19 184.35 3.21 184.35 3.44ZM200.13 12.39C200.13 12.63 200.16 12.68 200.35 12.68C200.68 12.68 201.64 12.64 202.06 12.64C202.48 12.64 206.84 12.68 207.16 12.68C207.42 12.68 207.49 12.66 207.51 12.49C207.56 12.08 207.80 10.72 207.80 10.60C207.80 10.47 207.65 10.44 207.48 10.43C207.38 10.42 207.30 10.46 207.28 10.56L207.12 11.76C207.07 12.05 207.06 12.03 206.84 12.04C206.68 12.05 204.18 12.12 202.75 12.12C202.71 12.12 202.66 11.38 202.66 10.54L202.66 6.66C202.66 5.40 202.68 3.70 202.78 3.70L203.76 3.70C203.99 3.70 204.02 3.63 204.02 3.44C204.02 3.23 204.01 3.19 203.77 3.19C203.45 3.19 202.51 3.23 202.09 3.23C201.67 3.23 200.73 3.19 200.51 3.19C200.28 3.19 200.23 3.22 200.23 3.44C200.23 3.65 200.27 3.70 200.47 3.70L201.29 3.70C201.33 3.70 201.36 4.23 201.36 4.90L201.36 8.13C201.36 10.07 201.33 12.18 201.25 12.18L200.41 12.18C200.19 12.18 200.13 12.21 200.13 12.39ZM215.42 12.39C215.42 12.63 215.45 12.68 215.64 12.68C215.96 12.68 216.93 12.64 217.35 12.64C217.77 12.64 222.28 12.68 222.60 12.68C222.73 12.68 222.88 12.66 222.88 12.49C222.88 12.07 222.92 11.23 222.92 10.53C222.92 10.39 222.77 10.39 222.64 10.39C222.53 10.39 222.40 10.39 222.40 10.51C222.39 11.06 222.39 11.41 222.36 11.76C222.33 12.01 222.33 12.04 222.24 12.04C222.08 12.04 219.45 12.08 217.95 12.08C217.88 12.08 217.84 10.11 217.80 8.26C217.80 8.06 217.84 8.09 217.98 8.09L220.26 8.09C220.96 8.09 220.99 8.20 220.99 8.30L220.99 9.00C220.99 9.14 221.17 9.14 221.28 9.14C221.38 9.14 221.51 9.13 221.51 9.02C221.51 8.83 221.48 8.33 221.48 7.83C221.48 7.32 221.51 6.83 221.51 6.71C221.51 6.59 221.37 6.58 221.27 6.58C221.16 6.58 220.99 6.59 220.99 6.72L220.99 7.45C220.99 7.62 220.54 7.63 220.26 7.63L217.92 7.63C217.81 7.63 217.80 7.63 217.80 7.45C217.78 6.75 217.77 6.06 217.77 5.46C217.77 5.12 217.77 3.71 217.85 3.71C219.09 3.71 221.59 3.75 221.59 3.81C221.59 3.99 221.55 4.83 221.55 4.89C221.55 5.04 221.62 5.10 221.80 5.10C222.00 5.10 222.07 5.08 222.07 4.94C222.07 3.85 222.12 3.36 222.12 3.09C222.12 2.91 222.04 2.90 221.84 2.90C221.65 2.90 221.65 2.95 221.62 3.11C221.61 3.25 221.68 3.25 220.77 3.25C220.15 3.25 218.01 3.29 217.24 3.29C216.75 3.29 215.81 3.25 215.71 3.25C215.59 3.25 215.53 3.30 215.53 3.49C215.53 3.72 215.60 3.74 215.77 3.74L216.43 3.74C216.48 3.74 216.55 4.79 216.55 5.71C216.55 5.80 216.61 8.27 216.61 9.83L216.61 11.17C216.61 11.84 216.58 12.18 216.55 12.18L215.70 12.18C215.47 12.18 215.42 12.21 215.42 12.39ZM240.69 3.51C240.69 3.75 240.77 3.77 240.94 3.77L241.47 3.77C241.53 3.77 241.53 4.12 241.53 4.55C241.53 5.66 241.51 8.96 241.51 9.42C241.51 11.13 241.77 12.80 244.62 12.80C245.70 12.80 246.86 12.38 247.52 12.00C247.77 11.86 248.07 11.72 248.15 11.72C248.42 11.72 248.68 12.74 249.02 12.74C249.34 12.74 249.35 12.35 249.35 12.25C249.35 11.96 249.41 10.08 249.45 8.16C249.51 6.12 249.49 3.77 249.61 3.77L249.93 3.77C250.15 3.77 250.22 3.75 250.22 3.56C250.22 3.32 250.18 3.26 249.98 3.26C249.84 3.26 249.31 3.30 248.89 3.30C248.47 3.30 247.67 3.26 247.45 3.26C247.27 3.26 247.17 3.28 247.17 3.51C247.17 3.75 247.28 3.77 247.45 3.77L248.15 3.77C248.22 3.77 248.23 4.30 248.23 4.87L248.23 9.14C248.23 11.19 248.23 11.12 247.90 11.34C247.51 11.61 246.69 12.08 245.52 12.08C243.54 12.08 242.75 11.17 242.75 9.41C242.75 8.82 242.82 3.77 242.93 3.77L243.84 3.77C244.06 3.77 244.10 3.75 244.10 3.56C244.10 3.32 244.09 3.26 243.89 3.26C243.57 3.26 242.69 3.30 242.27 3.30C241.85 3.30 241.16 3.26 240.94 3.26C240.76 3.26 240.69 3.28 240.69 3.51ZM258.26 12.39C258.26 12.63 258.27 12.68 258.47 12.68C258.65 12.68 259.03 12.64 259.64 12.64C260.27 12.64 260.83 12.68 261.16 12.68C261.32 12.68 261.32 12.61 261.32 12.40C261.32 12.24 261.32 12.18 261.16 12.18L259.95 12.18C259.91 12.18 259.90 11.54 259.90 10.79C259.90 9.46 259.91 7.48 259.91 5.99C259.91 5.25 259.91 4.84 259.92 4.28C259.92 4.02 259.99 4.14 260.12 4.28L267.01 12.66C267.09 12.75 267.18 12.89 267.29 12.89C267.40 12.89 267.47 12.77 267.47 12.54C267.47 12.39 267.64 6.65 267.65 4.48C267.65 4.06 267.68 3.70 267.71 3.70L268.34 3.70C268.56 3.70 268.62 3.68 268.62 3.49C268.62 3.25 268.62 3.19 268.42 3.19C268.23 3.19 267.79 3.23 267.23 3.23C266.62 3.23 265.82 3.19 265.72 3.19C265.55 3.19 265.55 3.26 265.55 3.47C265.55 3.64 265.55 3.70 265.72 3.70L267.02 3.70C267.04 3.70 267.04 4.33 267.04 4.44C267.04 5.85 267.06 8.33 267.06 9.70L267.06 10.29C267.06 10.57 267.05 10.65 266.83 10.37L261.14 3.39C261.03 3.25 261.00 3.19 260.83 3.19C260.75 3.19 260.37 3.23 260.06 3.23C259.77 3.23 258.69 3.19 258.50 3.19C258.33 3.19 258.30 3.26 258.30 3.47C258.30 3.64 258.33 3.70 258.50 3.70L259.41 3.70C259.41 4.17 259.36 8.53 259.29 10.79C259.27 11.69 259.28 12.18 259.17 12.18L258.52 12.18C258.30 12.18 258.26 12.19 258.26 12.39ZM276.51 12.39C276.51 12.63 276.56 12.68 276.75 12.68C277.07 12.68 277.83 12.64 278.54 12.64C279.20 12.64 280 12.68 280.22 12.68C280.39 12.68 280.42 12.61 280.42 12.40C280.42 12.24 280.39 12.18 280.22 12.18L279.26 12.18C279.16 12.18 279.13 9.55 279.13 7.76L279.13 5.87C279.13 5.14 279.16 3.70 279.26 3.70L280.17 3.70C280.39 3.70 280.42 3.68 280.42 3.49C280.42 3.25 280.39 3.19 280.22 3.19C279.90 3.19 279.23 3.23 278.57 3.23C277.76 3.23 277.05 3.19 276.82 3.19C276.64 3.19 276.57 3.21 276.57 3.44C276.57 3.68 276.65 3.70 276.82 3.70L277.75 3.70C277.79 3.70 277.86 4.79 277.86 5.71L277.86 7.08C277.86 8.92 277.84 12.18 277.73 12.18L276.81 12.18C276.58 12.18 276.51 12.19 276.51 12.39ZM288.39 7.84C288.39 10.93 290.57 12.25 293.03 12.59C293.15 12.60 293.19 12.60 293.19 12.61C293.19 12.63 293.17 12.64 293.09 12.68C292.66 12.89 291.70 13.30 291.35 13.40C291.06 13.47 290.81 13.48 290.57 13.48C290.47 13.48 290.36 13.47 290.26 13.47C290.02 13.47 289.87 13.51 289.87 13.72C289.87 13.90 290.19 14.35 290.42 14.35C290.56 14.35 291.02 14.10 291.35 14.10C292.08 14.10 294.31 15.26 296.24 15.26C297.28 15.26 298.48 14.38 298.48 14.14C298.48 14.06 298.30 13.86 298.24 13.86C298.12 13.86 297.70 14.29 296.74 14.29C296.14 14.29 295.19 13.93 294.24 13.72C293.66 13.59 292.84 13.57 292.39 13.54C292.15 13.52 292.28 13.48 292.39 13.43C293.01 13.15 294.39 12.54 294.73 12.45C296.74 11.87 298.17 10.11 298.17 7.84C298.17 5.10 296.09 3.11 293.29 3.11C290.70 3.11 288.39 4.79 288.39 7.84ZM289.69 7.62C289.69 5.49 291.17 3.58 293.15 3.58C295.40 3.58 296.72 5.82 296.72 7.95C296.72 11.06 294.28 12.31 293.87 12.31C293.57 12.31 291.65 11.80 290.86 10.91C290.16 10.11 289.69 8.89 289.69 7.62ZM306.28 3.51C306.28 3.75 306.36 3.77 306.53 3.77L307.06 3.77C307.12 3.77 307.12 4.12 307.12 4.55C307.12 5.66 307.10 8.96 307.10 9.42C307.10 11.13 307.36 12.80 310.21 12.80C311.29 12.80 312.45 12.38 313.11 12.00C313.36 11.86 313.66 11.72 313.74 11.72C314.01 11.72 314.27 12.74 314.61 12.74C314.93 12.74 314.94 12.35 314.94 12.25C314.94 11.96 315 10.08 315.04 8.16C315.10 6.12 315.08 3.77 315.20 3.77L315.52 3.77C315.74 3.77 315.81 3.75 315.81 3.56C315.81 3.32 315.77 3.26 315.57 3.26C315.43 3.26 314.90 3.30 314.48 3.30C314.06 3.30 313.26 3.26 313.04 3.26C312.86 3.26 312.76 3.28 312.76 3.51C312.76 3.75 312.87 3.77 313.04 3.77L313.74 3.77C313.81 3.77 313.82 4.30 313.82 4.87L313.82 9.14C313.82 11.19 313.82 11.12 313.49 11.34C313.10 11.61 312.28 12.08 311.11 12.08C309.13 12.08 308.34 11.17 308.34 9.41C308.34 8.82 308.41 3.77 308.52 3.77L309.43 3.77C309.65 3.77 309.69 3.75 309.69 3.56C309.69 3.32 309.68 3.26 309.48 3.26C309.16 3.26 308.28 3.30 307.86 3.30C307.44 3.30 306.75 3.26 306.53 3.26C306.35 3.26 306.28 3.28 306.28 3.51ZM323.85 12.39C323.85 12.63 323.88 12.68 324.07 12.68C324.39 12.68 325.36 12.64 325.78 12.64C326.20 12.64 330.71 12.68 331.03 12.68C331.16 12.68 331.31 12.66 331.31 12.49C331.31 12.07 331.35 11.23 331.35 10.53C331.35 10.39 331.20 10.39 331.07 10.39C330.96 10.39 330.83 10.39 330.83 10.51C330.82 11.06 330.82 11.41 330.79 11.76C330.76 12.01 330.76 12.04 330.67 12.04C330.51 12.04 327.88 12.08 326.38 12.08C326.31 12.08 326.27 10.11 326.23 8.26C326.23 8.06 326.27 8.09 326.41 8.09L328.69 8.09C329.39 8.09 329.42 8.20 329.42 8.30L329.42 9.00C329.42 9.14 329.60 9.14 329.71 9.14C329.81 9.14 329.94 9.13 329.94 9.02C329.94 8.83 329.91 8.33 329.91 7.83C329.91 7.32 329.94 6.83 329.94 6.71C329.94 6.59 329.80 6.58 329.70 6.58C329.59 6.58 329.42 6.59 329.42 6.72L329.42 7.45C329.42 7.62 328.97 7.63 328.69 7.63L326.35 7.63C326.24 7.63 326.23 7.63 326.23 7.45C326.21 6.75 326.20 6.06 326.20 5.46C326.20 5.12 326.20 3.71 326.28 3.71C327.52 3.71 330.02 3.75 330.02 3.81C330.02 3.99 329.98 4.83 329.98 4.89C329.98 5.04 330.05 5.10 330.23 5.10C330.43 5.10 330.50 5.08 330.50 4.94C330.50 3.85 330.55 3.36 330.55 3.09C330.55 2.91 330.47 2.90 330.27 2.90C330.08 2.90 330.08 2.95 330.05 3.11C330.04 3.25 330.11 3.25 329.20 3.25C328.58 3.25 326.44 3.29 325.67 3.29C325.18 3.29 324.24 3.25 324.14 3.25C324.02 3.25 323.96 3.30 323.96 3.49C323.96 3.72 324.03 3.74 324.20 3.74L324.86 3.74C324.91 3.74 324.98 4.79 324.98 5.71C324.98 5.80 325.04 8.27 325.04 9.83L325.04 11.17C325.04 11.84 325.01 12.18 324.98 12.18L324.13 12.18C323.90 12.18 323.85 12.21 323.85 12.39Z"/>
  </g>
</svg>